<?xml version="1.0" encoding="utf-8"?>
<!-- Designed by Vexels.com - 2020 All Rights Reserved - https://vexels.com/terms-and-conditions/  -->
<svg version="1.1" id="Capa_1" xmlns="http://www.w3.org/2000/svg" xmlns:xlink="http://www.w3.org/1999/xlink" x="0px" y="0px"
	 viewBox="0 0 1200 1200" enable-background="new 0 0 1200 1200" xml:space="preserve">
<g>
	<g>
		<g>
			<g>
				<g>
					<g>
						<path fill="#E19D46" d="M630.505,1138.018l-10.205-6.435c37.65-59.75,19.443-182.362,19.256-183.597l11.927-1.82
							C652.279,951.375,670.536,1074.49,630.505,1138.018z"/>
					</g>
				</g>
				<g>
					<g>
						
							<rect x="677.327" y="1065.496" transform="matrix(0.2777 -0.9607 0.9607 0.2777 -575.5364 1460.4034)" fill="#E19D46" width="12.06" height="94.841"/>
					</g>
				</g>
				<g>
					<g>
						
							<rect x="572.892" y="1104.443" transform="matrix(0.8944 -0.4472 0.4472 0.8944 -432.4489 389.0669)" fill="#E19D46" width="69.88" height="12.063"/>
					</g>
				</g>
			</g>
			<g>
				<g>
					<g>
						<path fill="#E19D46" d="M246.924,988.96c-2.088,0-4.168-0.057-6.224-0.179l0.682-12.041
							c70.458,3.762,168.98-71.271,169.963-72.035l7.377,9.555C414.661,917.388,321.022,988.96,246.924,988.96z"/>
					</g>
				</g>
				<g>
					<g>
						
							<rect x="282.209" y="975.458" transform="matrix(0.975 -0.2221 0.2221 0.975 -220.0063 89.5791)" fill="#E19D46" width="12.066" height="94.846"/>
					</g>
				</g>
				<g>
					<g>
						
							<rect x="247.782" y="920.672" transform="matrix(0.5666 -0.824 0.824 0.5666 -677.4195 623.3252)" fill="#E19D46" width="12.071" height="69.879"/>
					</g>
				</g>
			</g>
			<g>
				<g>
					<g>
						<path fill="#172445" d="M843.964,368.673c0,0-5.929-202.465,155.252-282.918c38.48-19.207,133.729-48.897,149.65,15.8
							c5.257,21.361-8.255,42.18-29.975,45.42c-13.78,2.056-27.69-2.381-40.483-7.899c-39.083-16.857-74.927-24.21-112.638,2.472
							c-51.253,36.264-80.588,107.879-94.296,166.876c-1.494,6.428-13.206,64.974-7.218,66.953L843.964,368.673z"/>
					</g>
				</g>
				<g>
					<g>
						<path fill="#586E86" d="M972.686,435.045c7.493-7.616-57.839-58.914-62.763-61.886
							c-51.595-31.134-118.517-34.326-173.105-9.018c-30.13,13.969-56.997,36.375-73.764,65.276
							c-25.003,43.095-19.894,96.618-43.873,140.013c-26.312,47.618-76.61,53.566-126.379,50.877
							c-41.861-2.262-84.008-5.927-124.179-17.918C250.67,567.177,225.685,473.877,212.521,363.2
							c-1.331-11.195-1.744-22.449-3.56-33.597c-1.836-11.267-4.364-26.126-13.518-34.038c-4.953-4.281-13.768-4.818-19.497-1.902
							c-8.024,4.086-8.24,14.993-8.719,22.714c-0.838,13.507-0.513,26.489,2.112,39.825c2.054,10.437,5.119,20.664,8.89,30.605
							c-4.453-11.739-9.51-23.235-13.807-35.048c-6.712-18.45-12.266-37.294-17.392-56.238
							c-4.079-15.074-7.524-33.813-26.995-34.468c-29.174-0.981-11.638,47.734-7.021,61.894
							c8.205,25.163,17.11,50.399,33.035,71.873c-3.644-4.915-21.822-32.3-25.897-38.498c-9.622-14.635-35.139-74.931-61.82-53.279
							c-14.768,11.986-6.741,34.769-0.028,48.903c10.832,22.805,22.556,45.242,33.85,67.83
							c14.529,29.059,29.059,58.118,43.588,87.176c43.937,87.874,76.809,181.329,122.334,268.113
							c83.892,159.922,292.908,236.971,463.906,178.266c52.632-18.069,100.864-51.677,133.277-97.221
							c37.843-53.173,48.815-123.61,71.901-183.934c15.134-39.545,28.419-86.791,53.57-121.483
							C980.731,550.694,906.314,502.424,972.686,435.045z"/>
					</g>
				</g>
				<g>
					<g>
						<path fill="#E9BF93" d="M960.533,437.869c-0.627-5.082-21.154-14.857-24.917-16.99
							c-62.392-35.365-159.663-20.783-172.12,62.354c-4.629,30.898,8.823,73.261,37.584,89.61
							c27.086,15.397,70.11,14.384,98.552,3.992c16.617-6.071,30.834-16.894,41.339-31.111
							c11.598-15.695,27.152-46.359,24.675-66.43C965.646,479.293,960.537,437.9,960.533,437.869z"/>
					</g>
				</g>
				<g>
					<g>
						<path fill="#D78C39" d="M946.756,481.624l72.765-4.775c0,0-17.298,44.226-39.64,72.675
							C972.165,543.923,940.601,518.511,946.756,481.624z"/>
					</g>
				</g>
				<g>
					<g>
						<path fill="#E19D46" d="M1053.137,441.079c0,0-61.477,6.258-84.964-16.79c0,0-22.095,0.932-22.87,62.495
							C945.303,486.784,1029.002,505.44,1053.137,441.079z"/>
					</g>
				</g>
				<g>
					<g>
						
							<ellipse transform="matrix(0.9982 -0.0602 0.0602 0.9982 -27.2585 52.8501)" fill="#172445" cx="863.498" cy="478.821" rx="6.202" ry="13.632"/>
					</g>
				</g>
				<g>
					<g>
						<path fill="#425B71" d="M803.738,600.641c0,0-13.409,242.695-218.559,210.514c0,0-35.039,13.409-69.813-22.795
							c0,0-38.796,0-60.25-45.589c0,0-96.542-21.783-97.882-193.248c0,0,163.584,112.796,282.92-15.926
							C640.154,533.598,657.585,607.345,803.738,600.641z"/>
					</g>
				</g>
				<g>
					<g>
						<path fill="#172445" d="M624.874,817.811c-12.854,0-26.268-1.227-40.218-3.681l1.04-5.947
							c52.584,9.27,97.1,0.569,132.353-25.821c66.282-49.635,77.73-145.979,77.836-146.946l5.996,0.666
							c-0.114,0.991-11.87,99.927-80.216,151.105C694.447,807.565,662.013,817.811,624.874,817.811z"/>
					</g>
				</g>
				<g>
					<g>
						<g>
							<path fill="#172445" d="M727.605,688.333c-4.737,0-9.945-0.869-14.641-3.591c-7.077-4.103-11.497-11.545-13.122-22.116
								l3.981-0.617c1.43,9.303,5.176,15.778,11.139,19.24c11.017,6.394,26.219,0.699,26.373,0.65l1.446,3.754
								C742.343,685.823,735.664,688.333,727.605,688.333z"/>
						</g>
					</g>
					<g>
						<g>
							<path fill="#172445" d="M610.94,727.292c-4.729,0-9.937-0.861-14.633-3.583c-7.077-4.111-11.497-11.545-13.122-22.116
								l3.981-0.617c1.43,9.311,5.184,15.786,11.155,19.248c11.034,6.411,26.203,0.699,26.357,0.634l1.446,3.754
								C625.687,724.781,619,727.292,610.94,727.292z"/>
						</g>
					</g>
					<g>
						<g>
							<path fill="#172445" d="M545.154,660.571c-4.729,0-9.937-0.861-14.633-3.583c-7.077-4.111-11.497-11.545-13.122-22.116
								l3.981-0.617c1.43,9.311,5.184,15.787,11.155,19.248c11.042,6.41,26.203,0.699,26.357,0.634l1.446,3.754
								C559.9,658.06,553.213,660.571,545.154,660.571z"/>
						</g>
					</g>
					<g>
						<g>
							<path fill="#172445" d="M651.166,618.557c-4.729,0-9.937-0.861-14.633-3.583c-7.077-4.111-11.497-11.545-13.122-22.116
								l3.981-0.617c1.43,9.311,5.184,15.786,11.155,19.248c11.042,6.419,26.211,0.699,26.357,0.634l1.446,3.754
								C665.913,616.047,659.226,618.557,651.166,618.557z"/>
						</g>
					</g>
					<g>
						<g>
							<path fill="#172445" d="M496.624,692.778c-6.216,0-15.616-1.178-22.506-7.296c-6.118-5.436-8.962-13.609-8.45-24.293
								l4.014,0.195c-0.447,9.4,1.934,16.485,7.093,21.076c9.514,8.474,25.569,5.915,25.707,5.891l0.666,3.965
								C502.872,692.363,500.305,692.778,496.624,692.778z"/>
						</g>
					</g>
					<g>
						<g>
							<path fill="#172445" d="M750.947,651.317c-6.224,0-15.624-1.178-22.506-7.296c-6.118-5.435-8.962-13.601-8.45-24.285
								l4.013,0.195c-0.447,9.392,1.934,16.485,7.093,21.068c9.506,8.458,25.561,5.915,25.715,5.891l0.666,3.965
								C757.203,650.902,754.636,651.317,750.947,651.317z"/>
						</g>
					</g>
					<g>
						<g>
							<path fill="#172445" d="M703.433,742.03c-6.224,0-15.616-1.178-22.506-7.296c-6.118-5.435-8.962-13.609-8.442-24.293
								l4.014,0.195c-0.455,9.409,1.934,16.502,7.101,21.092c9.547,8.474,25.528,5.899,25.699,5.874l0.666,3.965
								C709.689,741.616,707.122,742.03,703.433,742.03z"/>
						</g>
					</g>
					<g>
						<g>
							<path fill="#172445" d="M550.898,756.761c-6.215,0-15.616-1.178-22.498-7.296c-6.118-5.436-8.962-13.609-8.45-24.293
								l4.014,0.195c-0.447,9.409,1.942,16.51,7.109,21.092c9.539,8.474,25.52,5.899,25.691,5.874l0.666,3.965
								C557.154,756.346,554.586,756.761,550.898,756.761z"/>
						</g>
					</g>
					<g>
						<g>
							<path fill="#172445" d="M431.447,636.586c-6.224,0-15.624-1.178-22.506-7.296c-6.118-5.436-8.962-13.601-8.442-24.285
								l4.014,0.195c-0.447,9.392,1.934,16.485,7.085,21.068c9.506,8.458,25.561,5.907,25.715,5.891l0.666,3.965
								C437.703,636.172,435.135,636.586,431.447,636.586z"/>
						</g>
					</g>
					<g>
						<g>
							<path fill="#172445" d="M636.802,786.221c-6.215,0-15.616-1.178-22.498-7.296c-6.118-5.435-8.962-13.609-8.45-24.293
								l4.014,0.195c-0.447,9.409,1.942,16.51,7.109,21.092c9.539,8.474,25.528,5.899,25.691,5.874l0.666,3.965
								C643.058,785.807,640.49,786.221,636.802,786.221z"/>
						</g>
					</g>
					<g>
						<g>
							<path fill="#172445" d="M631.065,670.816c-4.737,0-9.945-0.869-14.641-3.591c-7.077-4.103-11.497-11.545-13.122-22.116
								l3.981-0.617c1.43,9.303,5.176,15.778,11.139,19.24c11.017,6.402,26.219,0.699,26.373,0.65l1.446,3.754
								C645.804,668.306,639.125,670.816,631.065,670.816z"/>
						</g>
					</g>
				</g>
				<g>
					<g>
						<path fill="#6284A9" d="M721.097,821.213c-105.674,23.236-189.294,78.297-221.292,138.508
							c72.179,18.057,148.502,18.898,219.495-5.475c52.632-18.069,100.864-51.677,133.277-97.221
							c9.438-13.261,17.204-27.598,23.905-42.583C830.189,807.332,776.563,809.017,721.097,821.213z"/>
					</g>
				</g>
				<g>
					<g>
						<g>
							<path fill="#172445" d="M146.048,394.82c-0.346-0.467-0.825-1.139-1.409-1.974
								C145.109,393.503,145.566,394.168,146.048,394.82z"/>
						</g>
					</g>
					<g>
						<g>
							<path fill="#172445" d="M58.304,351.945c10.832,22.805,22.556,45.242,33.85,67.83c6.371,12.741,12.741,25.481,19.111,38.222
								c33.92-48.089,74.671-52.056,108.732-42.357c-2.96-17.418-5.393-34.928-7.476-52.44c-1.331-11.195-1.744-22.449-3.56-33.597
								c-1.835-11.267-4.364-26.126-13.518-34.038c-4.953-4.281-13.768-4.819-19.497-1.902c-8.024,4.086-8.24,14.993-8.719,22.714
								c-0.838,13.507-0.513,26.489,2.112,39.825c2.054,10.436,5.119,20.664,8.89,30.604c-4.453-11.738-9.51-23.235-13.807-35.048
								c-6.712-18.449-12.266-37.294-17.392-56.238c-4.079-15.074-7.525-33.813-26.996-34.468
								c-29.174-0.981-11.638,47.734-7.02,61.894c7.445,22.832,15.484,45.713,28.803,65.8c-6.753-9.902-18.49-27.595-21.665-32.425
								c-9.622-14.635-35.139-74.931-61.82-53.279C43.564,315.028,51.591,337.811,58.304,351.945z M146.048,394.82
								c-0.346-0.467-0.825-1.139-1.409-1.974C145.109,393.503,145.566,394.168,146.048,394.82z"/>
						</g>
					</g>
				</g>
			</g>
		</g>
	</g>
</g>
</svg>
