<?xml version="1.0" encoding="UTF-8"?>
<svg viewBox="0 0 744.09 1052.4" xmlns="http://www.w3.org/2000/svg">
 <g transform="matrix(4.0503 0 0 -4.0503 313.89 589.56)" fill="#fc0">
  <path d="m40.491 41.725s5.903-1.043 8.001-2.926l-7.753-0.371-1.323 2.324 1.075 0.973z"/>
 </g>
 <g transform="matrix(4.0503 0 0 -4.0503 -214.85 2493.9)" fill="#5fbcd3">
  <path d="m104.43 477.6s1.774-3.374 6.628-0.67099c4.856 2.705 13.616 10.146 13.616 10.146l-1.033 1.283s-15.938-9.618-19.211-10.758" fill="#aad4ff"/>
 </g>
 <g transform="matrix(4.0503 0 0 -4.0503 -214.85 2493.9)" fill="#2c89a0">
  <path d="m107 474.98s2.747-3.113 7.26 0.129c4.516 3.241 11.77 11.598 11.77 11.598l-1.173 1.157s-14.735-11.377-17.857-12.884" fill="#007fff"/>
 </g>
 <g transform="matrix(4.0503 0 0 -4.0503 -214.85 2493.9)" fill="#006680">
  <path d="m109.82 472.11s2.679-2.621 6.807 1.101c4.127 3.722 10.804 12.666 10.804 12.666l-1.293 1.019s-13.383-12.943-16.318-14.786" fill="#00007f"/>
 </g>
 <g fill="#008080">
  <g transform="matrix(4.0503 0 0 -4.0503 -214.85 2493.9)">
   <path d="m113.93 470.56s3.324-2.421 6.944 1.794c3.622 4.216 8.775 14.099 8.775 14.099l-1.413 0.847s-11.629-14.538-14.306-16.74" fill="#aad4ff"/>
  </g>
  <g transform="matrix(4.0503 0 0 -4.0503 -214.85 2493.9)">
   <path d="m127.75 530.27c0.54599-0.46698-2.391 1.108-3.162 1.765 0 0-2.228-4.162 2.556-6.992 0.589-0.349-1.939 0.71301-2.706 1.208 0 0-1.273-3.386 1.845-5.692-0.113-0.32398-1.189-3.7321 2.226-5.921-0.205-1.233-0.17899-3.714 2.69-5.373 0.16301-1.421 0.97099-3.201 3.674-4.354 0.27802-0.116 0.57301-0.232 0.884-0.345 6.057-6.415 12.009-7.629 15.69-4.874 4.253 3.185 7.317 9.487-2.048 18.117-7.983 7.358-17.244 14.664-18.574 15.706-2.052 1.783-3.727 3.312-4.362 4.088 0 0-2.925-3.704 1.287-7.333" fill="#00007f"/>
  </g>
 </g>
 <g transform="matrix(4.0503 0 0 -4.0503 -214.85 2493.9)" fill="#0cf">
  <path d="m146.56 507.4c-9.27-8.96-24.52-19.872-24.52-19.872s16.915-9.637 29.331-6.165c12.417 3.472 15.451 17.788 20.317 27.677-0.49 4.863-2.746 8.891-7.469 8.892-3.987 0-9.732-2.8701-17.659-10.532" fill="#007fff"/>
 </g>
 <g transform="matrix(4.0503 0 0 -4.0503 -214.85 2493.9)" fill="#008080">
  <path d="m106.54 513.64c-3.415-0.054993-6.262-0.027039-7.508 0.16596 0 0 0.37101-5.919 7.351-5.78 0.90601 0.019012-3.166-0.97098-4.435-0.99899 0 0 1.405-5.762 8.251-4.4 0.845 0.168-2.41-0.957-3.544-1.137 0 0 1.649-4.237 6.497-3.78 0.167-0.396 2.018-4.486 7.047-3.671 0.84402-1.323 2.946-3.623 7.022-2.767 1.342-1.194 3.589-2.182 7.086-0.991 0.35701 0.121 0.731 0.26199 1.115 0.41602 11.042-0.923 17.629 2.933 18.761 8.596 1.31 6.543-1.108 15.005-17.103 15.228-1.245 0.017029-2.499 0.025024-3.752 0.025024-12.479 0-24.864-0.78003-26.788-0.90601" fill="#00007f" stroke="#fff"/>
 </g>
 <g transform="matrix(7.669 0 0 -7.6643 138.84 735.73)" fill="#241f1c">
  <path d="m40.757 41.464c0.09-0.32299 0.423-0.513 0.74599-0.422 0.323 0.09 0.513 0.425 0.42201 0.748-0.091 0.323-0.42601 0.513-0.74901 0.42201-0.322-0.09-0.51-0.424-0.41899-0.74801" fill="#00007f"/>
 </g>
</svg>
