<?xml version="1.0" encoding="utf-8"?>
<!-- Generator: Adobe Illustrator 23.0.6, SVG Export Plug-In . SVG Version: 6.00 Build 0)  -->
<svg version="1.1" id="Layer_1" xmlns="http://www.w3.org/2000/svg" xmlns:xlink="http://www.w3.org/1999/xlink" x="0px" y="0px"
	 viewBox="0 0 1200 1200" style="enable-background:new 0 0 1200 1200;" xml:space="preserve">
<style type="text/css">
	.st0{fill:#7EBAD4;}
	.st1{opacity:0.46;fill:#5594AA;}
	.st2{fill:#FFFFFF;}
	.st3{fill:none;}
	.st4{fill:#64A3B9;}
	.st5{fill:none;stroke:#64A3B9;stroke-width:0;stroke-linecap:round;stroke-linejoin:round;}
	.st6{opacity:0.47;}
	.st7{fill:#D8FFF7;}
	.st8{fill:none;stroke:#D8FFF7;stroke-width:0;stroke-linecap:round;stroke-linejoin:round;}
	.st9{fill:#F38A1E;}
	.st10{fill:#B9792C;}
	.st11{fill:#FCD192;}
	.st12{fill:#FCD9B1;}
	.st13{fill:#A3CEC6;}
	.st14{fill:#F0D13E;}
	.st15{fill:#8C5C22;}
	.st16{fill:none;stroke:#8C5C22;stroke-width:0;stroke-linecap:round;stroke-linejoin:round;}
	.st17{fill:#D29037;}
	.st18{fill:none;stroke:#D29037;stroke-width:0;stroke-linecap:round;stroke-linejoin:round;}
	.st19{fill:#824437;}
	.st20{fill:#332120;}
	.st21{fill:#F4983A;}
	.st22{fill:#E7D5C3;}
	.st23{fill:#F4E5D7;}
	.st24{fill:#C3A183;}
	.st25{fill:#FCF9EB;}
	.st26{fill:none;stroke:#2BA6B3;stroke-width:2;stroke-linecap:round;stroke-linejoin:round;stroke-miterlimit:10;}
	.st27{fill:#2BA6B3;}
	.st28{fill:#318A8F;}
	.st29{fill:#C6334E;}
	.st30{fill:#FC6230;}
	.st31{fill:#6F2121;}
	.st32{fill:#8CD7AD;}
	.st33{opacity:0.64;}
	.st34{fill:#FF867D;}
	.st35{fill:#F4473B;}
	.st36{fill:#EBE9D1;}
	.st37{fill:#E1DEB6;}
	.st38{fill:none;stroke:#E1DEB6;stroke-width:0;stroke-linecap:round;stroke-linejoin:round;}
	.st39{fill:#CD4C64;}
	.st40{fill:#E25070;}
	.st41{fill:#EAD6BE;}
	.st42{fill:#651023;}
	.st43{fill:#A3425B;}
	.st44{fill:#9B4949;}
	.st45{fill:#FCBC5B;}
	.st46{fill:#CFA46B;}
	.st47{fill:#C89756;}
	.st48{fill:#C0883E;}
	.st49{fill:#F7AC41;}
	.st50{fill:#D09242;}
	.st51{fill:none;stroke:#D09242;stroke-width:0;stroke-linecap:round;stroke-linejoin:round;}
	.st52{fill:#F89A42;}
	.st53{fill:#FFFDE9;}
	.st54{opacity:0.38;}
	.st55{fill:#FAF2CA;}
	.st56{fill:none;stroke:#FAF2CA;stroke-width:0;stroke-linecap:round;stroke-linejoin:round;}
	.st57{fill:#D7BB49;}
	.st58{fill:none;stroke:#D7BB49;stroke-width:0;stroke-linecap:round;stroke-linejoin:round;}
	.st59{fill:#F66A69;}
	.st60{fill:#FAD3D3;}
	.st61{fill:none;stroke:#FAD3D3;stroke-width:0;stroke-linecap:round;stroke-linejoin:round;}
	.st62{opacity:0.53;clip-path:url(#SVGID_12_);}
	.st63{clip-path:url(#SVGID_14_);}
	.st64{fill:#962744;}
	.st65{fill:#E8F5EC;}
	.st66{fill:#EDB055;}
	.st67{fill:#650C04;}
	.st68{fill:#FAD7A7;}
	.st69{fill:none;stroke:#FAD7A7;stroke-width:0;stroke-linecap:round;stroke-linejoin:round;}
	.st70{opacity:0.62;}
	.st71{fill:#782A23;}
	.st72{fill:#43B5C0;}
	.st73{fill:#222E48;}
	.st74{fill:#E56759;}
	.st75{fill:#FCC54E;}
	.st76{fill:#F7E6D7;}
	.st77{fill:#520001;}
	.st78{fill:#FECB9F;}
	.st79{fill:#5899FE;}
	.st80{fill:#2C7CF2;}
	.st81{fill:#FCE270;}
	.st82{fill:#EFD256;}
	.st83{fill:#FD6A88;}
	.st84{fill:#ED567A;}
	.st85{fill:#00D2D1;}
</style>
<g>
	<g>
		<g>
			<path class="st75" d="M958.78,346.18c-11.8-13.73-27.32-24.99-45.04-29.51c-23.12-5.87-46.75,0.87-66.94,12.49
				c-32.4,18.67-47.72,87.14-51.69,107.76c-0.34,1.85-1.78,3.11-3.45,3.43c-57.36-30.38-181.28-98.66-264.34-132.36
				c-46.68-18.95-102.26-32.53-150.75-41.91c-47.67-9.24-88.53-14.4-107.37-16.52c-1.03-0.24-2.05-0.44-3.11-0.57
				c-2.6-0.44-5.3-0.63-8.03-0.62c-28.6,0.1-51.7,23.55-51.6,52.39c0.05,15.92,7.17,30.14,18.34,39.71
				c-12.87,9.54-28.24,27.12-28.18,44.47c0.08,23.04,8.3,41.06,28.84,47.93c-10.76,9.61-13.92,28.32-7.46,46.72
				c9.56,27.22,27,44.03,55.58,43.93c1.12,0,2.24-0.06,3.34-0.13c-2.14,5.75-3.31,11.99-3.28,18.5
				c0.1,28.85,23.35,52.16,51.93,52.06c4.26-0.01,8.4-0.56,12.35-1.55c-0.81,3.71-1.25,7.55-1.24,11.51
				c0.1,28.84,23.34,52.15,51.91,52.06l0,0l78.16-0.26c-11.99,6.61-25.38,13.19-39.95,19.15l-258.41,23.16
				c-0.96-0.07-1.93-0.15-2.86-0.22c-3.36-0.26-6.33,0.45-8.83,1.8c-9.81,3.35-15.29,14.52-11,24.61
				c12.86,30.3,39.49,85.3,81.24,135.85c39.34,47.64,87,76.85,110.45,89.4c8.13,4.35,18.22,2.01,23.63-5.46l34.22-47.25
				c23.25-29.1,48.67-65.56,65.81-90.87l20.86-28.8c0.96-0.16,1.97-0.02,2.89,0.5c35.54,20.28,329.6,177.05,459.43-107.41
				c24.97-54.76,36.7-114.92,42.48-174.5C991.58,445.76,993.61,386.7,958.78,346.18z"/>
		</g>
		<g>
			<path class="st73" d="M897.53,389.51c-12.92,0-23.21-7.21-23.78-7.62l7.77-10.88l-3.89,5.44l3.86-5.46
				c0.13,0.09,12.93,8.9,24.51,3.2c12.18-6,14.8-15.66,14.91-16.07l13,3.11c-0.15,0.65-3.93,16.05-22,24.95
				C906.99,388.61,902.1,389.51,897.53,389.51z"/>
		</g>
	</g>
	<g>
		<path class="st73" d="M1055.75,398.52l-49.64,32.79c-0.31-5.03-0.76-10.07-1.43-15.06l30.83-20.41l-37.07-8.87
			c-1.6-5.17-3.52-10.25-5.75-15.15l60.91,14.61L1055.75,398.52z"/>
	</g>
</g>
</svg>
